<svg width="20" height="20" viewBox="0 0 20 20" fill="none" xmlns="http://www.w3.org/2000/svg">
<path d="M10.0164 17.1091C8.07471 17.1091 6.13306 16.8007 4.29141 16.1841C3.59142 15.9424 3.05809 15.4508 2.82476 14.8091C2.58309 14.1674 2.66643 13.4591 3.04976 12.8258L4.00808 11.2341C4.20808 10.9008 4.39141 10.2341 4.39141 9.84247V7.43416C4.39141 4.33419 6.91639 1.80922 10.0164 1.80922C13.1163 1.80922 15.6413 4.33419 15.6413 7.43416V9.84247C15.6413 10.2258 15.8246 10.9008 16.0246 11.2425L16.9746 12.8258C17.3329 13.4258 17.3996 14.1508 17.158 14.8091C16.9163 15.4674 16.3913 15.9674 15.733 16.1841C13.8996 16.8007 11.958 17.1091 10.0164 17.1091ZM10.0164 3.0592C7.60804 3.0592 5.6414 5.01752 5.6414 7.43416V9.84247C5.6414 10.4508 5.3914 11.3508 5.08307 11.8758L4.12474 13.4674C3.94141 13.7758 3.89141 14.1008 3.99975 14.3758C4.09974 14.6591 4.34974 14.8758 4.69141 14.9924C8.17471 16.1591 11.8663 16.1591 15.3496 14.9924C15.6496 14.8924 15.883 14.6674 15.9913 14.3674C16.0996 14.0674 16.0746 13.7424 15.908 13.4674L14.9496 11.8758C14.633 11.3341 14.3913 10.4425 14.3913 9.83414V7.43416C14.3913 5.01752 12.433 3.0592 10.0164 3.0592Z" fill="#808080"/>
<path d="M11.5665 3.28207C11.5082 3.28207 11.4498 3.27373 11.3915 3.25707C11.1498 3.1904 10.9165 3.1404 10.6915 3.10707C9.98319 3.0154 9.29987 3.0654 8.65821 3.25707C8.42488 3.33207 8.17488 3.25707 8.01655 3.08207C7.85821 2.90707 7.80821 2.65707 7.89988 2.43207C8.24154 1.55708 9.07487 0.982089 10.0249 0.982089C10.9748 0.982089 11.8082 1.54875 12.1498 2.43207C12.2332 2.65707 12.1915 2.90707 12.0332 3.08207C11.9082 3.2154 11.7332 3.28207 11.5665 3.28207Z" fill="#808080"/>
<path d="M10.0167 19.0074C9.19171 19.0074 8.39171 18.6741 7.80839 18.0908C7.22506 17.5075 6.89173 16.7075 6.89173 15.8825H8.14172C8.14172 16.3741 8.34171 16.8575 8.69171 17.2075C9.04171 17.5575 9.52504 17.7575 10.0167 17.7575C11.05 17.7575 11.8917 16.9158 11.8917 15.8825H13.1417C13.1417 17.6075 11.7417 19.0074 10.0167 19.0074Z" fill="#808080"/>
</svg>
