<svg width="20" height="20" viewBox="0 0 20 20" fill="none" xmlns="http://www.w3.org/2000/svg">
<path d="M10.0001 13.1246C8.27511 13.1246 6.87513 11.7246 6.87513 9.99959C6.87513 8.27461 8.27511 6.87462 10.0001 6.87462C11.7251 6.87462 13.1251 8.27461 13.1251 9.99959C13.1251 11.7246 11.7251 13.1246 10.0001 13.1246ZM10.0001 8.12461C8.96677 8.12461 8.12511 8.96627 8.12511 9.99959C8.12511 11.0329 8.96677 11.8746 10.0001 11.8746C11.0334 11.8746 11.8751 11.0329 11.8751 9.99959C11.8751 8.96627 11.0334 8.12461 10.0001 8.12461Z" fill="#808080"/>
<path d="M12.6752 18.4907C12.5002 18.4907 12.3252 18.4657 12.1502 18.424C11.6335 18.2824 11.2002 17.9574 10.9252 17.499L10.8252 17.3324C10.3335 16.4824 9.65854 16.4824 9.16688 17.3324L9.07522 17.4907C8.80022 17.9574 8.36689 18.2907 7.85023 18.424C7.32523 18.5657 6.78357 18.4907 6.32524 18.2157L4.89192 17.3907C4.38359 17.099 4.01693 16.624 3.8586 16.049C3.7086 15.474 3.7836 14.8824 4.07526 14.3741C4.31693 13.9491 4.38359 13.5657 4.24193 13.3241C4.10026 13.0824 3.74193 12.9407 3.25027 12.9407C2.03362 12.9407 1.04196 11.9491 1.04196 10.7324L1.04196 9.26577C1.04196 8.04912 2.03362 7.05746 3.25027 7.05746C3.74193 7.05746 4.10026 6.91579 4.24193 6.67413C4.38359 6.43247 4.32526 6.04914 4.07526 5.62414C3.7836 5.11581 3.7086 4.51582 3.8586 3.94916C4.0086 3.37416 4.37526 2.89917 4.89192 2.6075L6.33358 1.78251C7.27523 1.22418 8.51689 1.54918 9.08355 2.5075L9.18355 2.67417C9.67521 3.52416 10.3502 3.52416 10.8419 2.67417L10.9335 2.51584C11.5002 1.54918 12.7418 1.22418 13.6918 1.79084L15.1252 2.61584C15.6335 2.9075 16.0001 3.3825 16.1585 3.95749C16.3085 4.53248 16.2335 5.12415 15.9418 5.63247C15.7002 6.05747 15.6335 6.4408 15.7752 6.68246C15.9168 6.92413 16.2751 7.06579 16.7668 7.06579C17.9835 7.06579 18.9751 8.05745 18.9751 9.2741V10.7408C18.9751 11.9574 17.9835 12.9491 16.7668 12.9491C16.2751 12.9491 15.9168 13.0907 15.7752 13.3324C15.6335 13.5741 15.6918 13.9574 15.9418 14.3824C16.2335 14.8907 16.3168 15.4907 16.1585 16.0574C16.0085 16.6324 15.6418 17.1074 15.1252 17.399L13.6835 18.224C13.3668 18.399 13.0252 18.4907 12.6752 18.4907ZM10.0002 15.4074C10.7419 15.4074 11.4335 15.874 11.9085 16.699L12.0002 16.8574C12.1002 17.0324 12.2669 17.1574 12.4668 17.2074C12.6668 17.2574 12.8668 17.2324 13.0335 17.1324L14.4752 16.299C14.6918 16.174 14.8585 15.9657 14.9252 15.7157C14.9918 15.4657 14.9585 15.2074 14.8335 14.9907C14.3585 14.1741 14.3002 13.3324 14.6668 12.6907C15.0335 12.0491 15.7918 11.6824 16.7418 11.6824C17.2751 11.6824 17.7001 11.2574 17.7001 10.7241V9.25744C17.7001 8.73244 17.2751 8.29911 16.7418 8.29911C15.7918 8.29911 15.0335 7.93245 14.6668 7.29079C14.3002 6.64913 14.3585 5.80747 14.8335 4.99081C14.9585 4.77415 14.9918 4.51582 14.9252 4.26582C14.8585 4.01582 14.7002 3.81582 14.4835 3.68249L13.0418 2.8575C12.6835 2.64084 12.2085 2.76583 11.9919 3.1325L11.9002 3.29083C11.4252 4.11582 10.7335 4.58248 9.99187 4.58248C9.25021 4.58248 8.55855 4.11582 8.08356 3.29083L7.99189 3.12416C7.78356 2.77417 7.3169 2.64917 6.95857 2.8575L5.51692 3.69083C5.30025 3.81582 5.13359 4.02416 5.06692 4.27415C5.00025 4.52415 5.03359 4.78248 5.15859 4.99915C5.63358 5.81581 5.69191 6.65746 5.32525 7.29912C4.95859 7.94079 4.20026 8.30745 3.25027 8.30745C2.71694 8.30745 2.29195 8.73244 2.29195 9.26577L2.29195 10.7324C2.29195 11.2574 2.71694 11.6907 3.25027 11.6907C4.20026 11.6907 4.95859 12.0574 5.32525 12.6991C5.69191 13.3407 5.63358 14.1824 5.15859 14.999C5.03359 15.2157 5.00025 15.474 5.06692 15.724C5.13359 15.974 5.29192 16.174 5.50858 16.3074L6.95024 17.1324C7.12523 17.2407 7.33357 17.2657 7.52523 17.2157C7.72523 17.1657 7.89189 17.0324 8.00023 16.8574L8.09189 16.699C8.56689 15.8824 9.25855 15.4074 10.0002 15.4074Z" fill="#808080"/>
</svg>
